<svg id="Layer_1" data-name="Layer 1" xmlns="http://www.w3.org/2000/svg" xmlns:xlink="http://www.w3.org/1999/xlink" viewBox="0 0 235.86 220.66"><defs><style>.cls-1,.cls-3{fill:none;}.cls-2{clip-path:url(#clip-path);}.cls-3,.cls-4,.cls-5{stroke:#000;stroke-miterlimit:10;}.cls-4{fill:#fbb03b;}.cls-5{fill:#f7931e;}</style><clipPath id="clip-path" transform="translate(-0.5 -0.5)"><rect class="cls-1" x="-334.32" y="122.58" width="34" height="35"/></clipPath></defs><rect class="cls-3" x="0.5" y="0.5" width="234.86" height="219.66"/><path class="cls-4" d="M55.15,142.39C47.51,107.23,81.41,71.89,121.43,73c33.24.88,62.71,26.66,62.79,58,.07,27.45-22.37,51.71-52.32,57C96.72,194.21,61.68,172.4,55.15,142.39Z" transform="translate(-0.5 -0.5)"/><path class="cls-5" d="M85.7,137.67C81.81,119.4,99.09,101,119.51,101.58c17,.46,32,13.85,32,30.16,0,14.27-11.41,26.88-26.69,29.63C106.9,164.6,89,153.26,85.7,137.67Z" transform="translate(-0.5 -0.5)"/><line class="cls-3" x1="87.4" y1="80.1" x2="79.37" y2="58.62"/><line class="cls-3" x1="155.05" y1="83.17" x2="165.37" y2="59.64"/><rect class="cls-3" x="23.18" y="27.93" width="17.2" height="177.98"/><rect class="cls-3" x="197.03" y="27.92" width="16.72" height="183.61" transform="translate(410.28 238.95) rotate(180)"/><rect class="cls-3" x="3.69" y="46.18" width="219.59" height="12.83"/></svg>