<svg id="Layer_1" data-name="Layer 1" xmlns="http://www.w3.org/2000/svg" viewBox="0 0 197 201.41"><defs><style>.cls-1{fill:#c1272d;}.cls-1,.cls-2,.cls-3,.cls-4,.cls-5{stroke:#000;stroke-miterlimit:10;}.cls-2{fill:#42210b;}.cls-3{fill:#603813;}.cls-4{fill:#f7931e;}.cls-5{fill:#fbb03b;}</style></defs><path class="cls-1" d="M60.11,176.49c-7.68-4.44-17.24-10.14-22.1-21.13-2.32-5.23-2.78-11.46-3.69-23.94s.37-14.39,1.48-14.78c3.28-1.18,7.86,9.31,11.78,8.45,5.91-1.3-3-25.45,10.32-45.07,3.55-5.25,5.43-5.35,16.21-19,8.39-10.63,10.18-14.28,11-18.3,2.37-11-3.4-18.79-1.48-19.72,2.43-1.17,14.52,9.73,20.63,24.64,2,4.89,3.11,9.57,5.9,9.86s6.3-3.74,6.63-7.74c.53-6.44-7.48-10.9-6.63-12s10.56,2.08,16.21,9.85a30,30,0,0,1,5.15,14.79,34.84,34.84,0,0,1,0,5.63c-.47,6.42-2.2,8-2.21,13.38,0,3,0,6.59,2.21,7.75,2,1.06,5.36-.27,7.37-2.11,4.54-4.16,2.81-11.23,5.9-12a2.73,2.73,0,0,1,1.76.25c3.72,1.48,12,10.63,13,25.8,1.3,19.56-10.49,33.09-8.1,34.5,1.71,1,8.72-5.39,14-13.38,9.61-14.55,7.66-25.63,11.06-26,5.24-.65,19.72,24.64,12.52,49.29-4,13.72-13.23,22.07-16.94,25.34-18.5,16.32-41.84,17.11-56.73,17.61C105.06,188.8,82.27,189.3,60.11,176.49Z" transform="translate(-9.51 -22.41)"/><path class="cls-2" d="M203.78,158.15c-9-8.19-33.05,26.34-82.34,34.61-11.38,1.92-28.15,3.1-32.07,13-1.54,3.88-1.08,9.08,1.74,12.12,5.5,5.93,18.18,1.73,34.66-3.46,58.17-18.32,67.41-18.64,74.54-31.15C204.72,175.5,208.61,162.58,203.78,158.15Z" transform="translate(-9.51 -22.41)"/><path class="cls-3" d="M12.67,159.18c10.7-8.39,39.47,27,98.34,35.46,13.6,2,33.62,3.17,38.3,13.29,1.84,4,1.3,9.3-2.07,12.41-6.56,6.08-21.72,1.78-41.4-3.54-69.47-18.77-80.51-19.09-89-31.91C11.54,177,6.9,163.71,12.67,159.18Z" transform="translate(-9.51 -22.41)"/><path class="cls-4" d="M81.55,186.46c-5-2.65-11.26-6-14.43-12.6-1.51-3.12-1.81-6.83-2.41-14.27s.24-8.57,1-8.81c2.15-.7,5.14,5.55,7.7,5,3.86-.78-1.93-15.17,6.73-26.87,2.32-3.13,3.55-3.19,10.59-11.33,5.48-6.34,6.64-8.51,7.21-10.91,1.55-6.55-2.22-11.2-1-11.75,1.58-.7,9.48,5.79,13.47,14.69,1.3,2.91,2,5.7,3.85,5.87s4.11-2.23,4.32-4.61c.35-3.84-4.88-6.5-4.32-7.14s6.89,1.24,10.58,5.88a16.79,16.79,0,0,1,3.36,8.81,18,18,0,0,1,0,3.36c-.3,3.82-1.44,4.77-1.44,8,0,1.76,0,3.93,1.44,4.62s3.5-.16,4.81-1.26c3-2.48,1.84-6.69,3.85-7.13a1.92,1.92,0,0,1,1.16.15c2.43.88,7.8,6.34,8.46,15.38.85,11.65-6.85,19.72-5.29,20.56,1.12.6,5.7-3.21,9.14-8,6.27-8.68,5-15.28,7.22-15.53,3.42-.39,12.87,14.69,8.17,29.38-2.61,8.18-8.63,13.15-11.06,15.11-12.07,9.72-27.31,10.19-37,10.49C110.89,193.8,96,194.09,81.55,186.46Z" transform="translate(-9.51 -22.41)"/><path class="cls-5" d="M98.94,189.05c-2.76-1.3-6.2-3-8-6.21-.83-1.54-1-3.37-1.33-7s.13-4.23.53-4.35c1.18-.35,2.83,2.74,4.24,2.48,2.13-.38-1.06-7.48,3.71-13.24,1.28-1.55,2-1.58,5.83-5.59,3-3.13,3.66-4.2,4-5.38.86-3.23-1.22-5.53-.53-5.8.87-.34,5.22,2.86,7.42,7.24.72,1.44,1.12,2.82,2.12,2.9a2.67,2.67,0,0,0,2.39-2.27c.19-1.9-2.69-3.21-2.39-3.52s3.8.61,5.83,2.89a7.88,7.88,0,0,1,1.86,4.35,9.76,9.76,0,0,1,0,1.66c-.17,1.88-.8,2.35-.8,3.93,0,.87,0,1.94.8,2.28a3.1,3.1,0,0,0,2.64-.62c1.64-1.23,1-3.3,2.12-3.52a1.26,1.26,0,0,1,.64.07c1.34.44,4.3,3.13,4.66,7.59.47,5.74-3.77,9.72-2.91,10.14.61.29,3.14-1.59,5-3.94,3.46-4.27,2.76-7.53,4-7.65,1.88-.2,7.09,7.24,4.5,14.49a16.44,16.44,0,0,1-6.09,7.45c-6.65,4.79-15.05,5-20.4,5.17C115.1,192.67,106.91,192.82,98.94,189.05Z" transform="translate(-9.51 -22.41)"/></svg>