<svg id="Layer_1" data-name="Layer 1" xmlns="http://www.w3.org/2000/svg" xmlns:xlink="http://www.w3.org/1999/xlink" viewBox="0 0 269.75 172.47"><defs><style>.cls-1{fill:url(#Golden_Ring);}.cls-2{fill:url(#Summer);}.cls-3{fill:url(#Summer-2);}.cls-4{fill:#998675;}.cls-5{fill:#1b1464;stroke:#000;stroke-miterlimit:10;}</style><radialGradient id="Golden_Ring" cx="682.74" cy="461.01" r="0" gradientTransform="translate(-450.55 -364.66) scale(1.04 0.99)" gradientUnits="userSpaceOnUse"><stop offset="0.74" stop-color="#fff" stop-opacity="0"/><stop offset="0.76" stop-color="#fff" stop-opacity="0.01"/><stop offset="0.77" stop-color="#fff" stop-opacity="0.04"/><stop offset="0.79" stop-color="#fff" stop-opacity="0.1"/><stop offset="0.79" stop-color="#fff" stop-opacity="0.18"/><stop offset="0.8" stop-color="#fff" stop-opacity="0.28"/><stop offset="0.81" stop-color="#fff" stop-opacity="0.4"/><stop offset="0.82" stop-color="#fff" stop-opacity="0.5"/><stop offset="0.82" stop-color="#dbc01f"/><stop offset="0.83" stop-color="#f1dc3a"/><stop offset="0.84" stop-color="#f5e13f"/><stop offset="0.84" stop-color="#dbc01f"/><stop offset="0.85" stop-color="#e1cb46"/><stop offset="0.87" stop-color="#e9d976"/><stop offset="0.89" stop-color="#f0e4a0"/><stop offset="0.91" stop-color="#f5eec3"/><stop offset="0.93" stop-color="#faf5dd"/><stop offset="0.95" stop-color="#fdfbf0"/><stop offset="0.98" stop-color="#fefefb"/><stop offset="1" stop-color="#fff"/></radialGradient><radialGradient id="Summer" cx="546.09" cy="451.79" r="73.83" gradientTransform="translate(-439.72 -395.12) scale(1 0.99)" gradientUnits="userSpaceOnUse"><stop offset="0" stop-color="#fff"/><stop offset="0.09" stop-color="#ffedd8"/><stop offset="0.21" stop-color="#ffd5a7"/><stop offset="0.33" stop-color="#ffc17d"/><stop offset="0.46" stop-color="#ffb05b"/><stop offset="0.59" stop-color="#ffa340"/><stop offset="0.72" stop-color="#ff9a2d"/><stop offset="0.86" stop-color="#ff9522"/><stop offset="1" stop-color="#ff931e"/></radialGradient><radialGradient id="Summer-2" cx="546.45" cy="492.94" r="80.47" gradientTransform="translate(-429.36 -364.66) scale(1 0.99)" xlink:href="#Summer"/></defs><path class="cls-1" d="M257.8,93.58" transform="translate(-10.35 -30.46)"/><ellipse class="cls-2" cx="103.91" cy="53.95" rx="103.03" ry="13.69"/><path class="cls-3" d="M11.23,83.72c-1.2,7.71-3.68,31.05,12.94,50.21,2.76,3.18,10.55,11.45,32.85,20.27,16,6.33,70.4,27.83,119.46,5.28,9.38-4.31,25.12-11.78,34.85-28.19a56.19,56.19,0,0,0,7-21.22,62.16,62.16,0,0,0-3-29" transform="translate(-10.35 -30.46)"/><rect class="cls-4" x="241.34" y="73.18" width="25.78" height="73.43"/><rect class="cls-4" x="245.52" y="29.52" width="15.33" height="43"/><polygon class="cls-4" points="261.3 28.4 244.04 28.6 235.22 14.5 243.66 0.2 260.93 0 269.75 14.1 261.3 28.4"/><path class="cls-5" d="M55.86,152.38c-8.8,2.15-14.82,14.52-15,25.13-.11,7.41,2.59,17.78,10.21,22.41,7.44,4.53,16.5,1.72,19.75.78,32-9.26,97.56-10,133.7-5.8,12.06,1.39,27.64,4.11,36.1-5.17,7-7.63,6.33-20.33,6.25-21.59-.16-2.75-.78-12.74-6.85-17.95-8.75-7.53-24.59-1.48-34,1.74-18.9,6.48-95.76,32.85-131.46,8C69.8,156.6,63.23,150.57,55.86,152.38Z" transform="translate(-10.35 -30.46)"/></svg>