<svg id="Layer_1" data-name="Layer 1" xmlns="http://www.w3.org/2000/svg" viewBox="0 0 48 48"><defs><style>.cls-1{fill:#57595b;}.cls-2{fill:#fff;}</style></defs><path class="cls-1" d="M49.76,26.12a24,24,0,1,1-24-24A24,24,0,0,1,49.76,26.12Z" transform="translate(-1.75 -2.12)"/><rect class="cls-2" x="9" y="19" width="7" height="20"/><path class="cls-2" d="M14.26,18.12a3.5,3.5,0,1,0-3.5-3.5A3.5,3.5,0,0,0,14.26,18.12Z" transform="translate(-1.75 -2.12)"/><path class="cls-2" d="M40.76,30.13c0-5.4-1.17-9-7.46-9-3,0-5,1.13-5.88,2.7h-.09v-2.7H21.76v20h5.82V31.21c0-2.61.5-5.15,3.73-5.15s3.45,3,3.45,5.32v9.74h6Z" transform="translate(-1.75 -2.12)"/></svg>