<svg id="Layer_1" data-name="Layer 1" xmlns="http://www.w3.org/2000/svg" viewBox="0 0 108 174.38"><defs><style>.cls-1,.cls-3{fill:none;}.cls-1{stroke:#000;stroke-miterlimit:10;}.cls-2{fill:#ff7bac;}</style></defs><rect class="cls-1" x="0.5" y="71.88" width="107" height="102"/><path class="cls-2" d="M32.49,76.81a25.24,25.24,0,1,1,0-50.47H75a25.24,25.24,0,0,1,0,50.47Z" transform="translate(0.24 71.07)"/><path d="M75,26.84a24.74,24.74,0,1,1,0,49.47H32.49a24.74,24.74,0,0,1,0-49.47H75m0-1H32.49A25.73,25.73,0,0,0,6.76,51.58h0A25.73,25.73,0,0,0,32.49,77.31H75a25.74,25.74,0,0,0,25.74-25.73h0A25.74,25.74,0,0,0,75,25.84Z" transform="translate(0.24 71.07)"/><line class="cls-3" x1="39.89" y1="111.84" x2="39.89" y2="14.31"/><line class="cls-1" x1="25.62" y1="128.75" x2="25.62" y2="120.1"/><line class="cls-1" x1="34.59" y1="107.91" x2="34.59" y2="139.37"/><line class="cls-1" x1="29.7" y1="114.59" x2="29.7" y2="133.08"/><line class="cls-3" x1="32.93" y1="109.2" x2="32.93"/><line class="cls-1" x1="47.91" y1="128.13" x2="47.91" y2="118.45"/><line class="cls-1" x1="38.5" y1="104.8" x2="38.5" y2="140.02"/><line class="cls-1" x1="43.63" y1="112.28" x2="43.63" y2="132.98"/><line class="cls-1" x1="51.69" y1="134.47" x2="51.69" y2="114.88"/><line class="cls-1" x1="55.64" y1="138.24" x2="55.64" y2="111.87"/><line class="cls-1" x1="59.59" y1="144.27" x2="59.59" y2="104.34"/><line class="cls-1" x1="62.75" y1="138.24" x2="62.75" y2="111.87"/><line class="cls-1" x1="65.91" y1="132.97" x2="65.91" y2="117.14"/><line class="cls-1" x1="69.86" y1="137.49" x2="69.86" y2="111.87"/><line class="cls-1" x1="73.81" y1="132.97" x2="73.81" y2="117.14"/><line class="cls-1" x1="76.97" y1="129.2" x2="76.97" y2="120.91"/></svg>