<svg id="Layer_1" data-name="Layer 1" xmlns="http://www.w3.org/2000/svg" xmlns:xlink="http://www.w3.org/1999/xlink" viewBox="0 0 133.66 165.93"><defs><style>.cls-1,.cls-2,.cls-3,.cls-4{stroke:#000;stroke-miterlimit:10;}.cls-1{fill:url(#Sky);}.cls-2{fill:url(#Sky-2);}.cls-3{fill:url(#Sky-3);}.cls-4{fill:#e6e6e6;}</style><linearGradient id="Sky" x1="58.54" y1="137.94" x2="80.98" y2="137.94" gradientUnits="userSpaceOnUse"><stop offset="0" stop-color="#cce0f4"/><stop offset="0.06" stop-color="#c3dcf2"/><stop offset="0.17" stop-color="#a9d2ee"/><stop offset="0.31" stop-color="#80c2e7"/><stop offset="0.46" stop-color="#47acde"/><stop offset="0.57" stop-color="#1e9cd7"/><stop offset="0.87" stop-color="#0075be"/><stop offset="0.99" stop-color="#005b97"/></linearGradient><linearGradient id="Sky-2" x1="89.29" y1="121.94" x2="116.98" y2="121.94" xlink:href="#Sky"/><linearGradient id="Sky-3" x1="86.36" y1="168.19" x2="111.98" y2="168.19" xlink:href="#Sky"/></defs><path class="cls-1" d="M71,120.19c-1-.07-1.2,3.23-3.76,7.65-2,3.53-3,3.38-5.35,7.29-1.55,2.59-2.79,4.68-3.17,7.66-.23,1.76-.78,6.15,2.38,9.52A11.75,11.75,0,0,0,69,155.67c.65,0,6.77.31,10.1-3.92,2.54-3.22,1.89-7.08,1.39-10.08-.59-3.53-2.1-6.29-3.77-9.34s-2.44-3.58-3.56-6.35C71.75,122.42,71.78,120.24,71,120.19Z" transform="translate(-24.82 -22.26)"/><path class="cls-2" d="M104.15,102.19c-1.87.13.16,8.09-5.77,13.59-2.36,2.19-4.66,2.77-6.86,6.15a13.07,13.07,0,0,0-2.16,5.83,11.9,11.9,0,0,0,2.53,8.74c3.83,4.76,10.1,5.13,11.18,5.18.77,0,8.64.26,12.26-4.86,2.12-3,1.68-6.29,1.44-8.09-.59-4.41-2.8-6.45-5.41-10.68C105.75,109,105.87,102.06,104.15,102.19Z" transform="translate(-24.82 -22.26)"/><path class="cls-3" d="M100.6,148.69c-1.09-.07-1.37,3.55-4.3,8.41-2.34,3.88-3.45,3.71-6.11,8-1.76,2.85-3.18,5.15-3.61,8.42-.26,1.94-.9,6.75,2.71,10.46,3.28,3.37,7.94,3.63,9,3.69.75,0,7.74.34,11.54-4.31,2.89-3.54,2.15-7.77,1.58-11.07-.67-3.87-2.39-6.91-4.3-10.26-2-3.5-2.79-3.94-4.07-7C101.44,151.14,101.48,148.75,100.6,148.69Z" transform="translate(-24.82 -22.26)"/><path class="cls-4" d="M68.19,51c4.43-6.87-2.47-16.13,3.29-23.37,2.85-3.59,8-5.61,12.23-4.68,6.33,1.38,6.87,8.36,12.22,8.83s6.54-6.15,13.17-6.75c5.25-.48,10.35,3.13,13.16,6.75,5.16,6.62,1.85,12.21,6.59,17.14,4.19,4.36,7.62.88,15.52,5.2,1.92,1.05,9.93,5.43,12.69,15.06a25.38,25.38,0,0,1,0,13.51c-2.39,8.9-8.83,13.36-11.28,15.06-8.82,6.1-18,5.16-22.1,4.68-11-1.31-12.28-6.3-20.69-8.32C85.59,90,79.16,108.49,57.84,108.69c-9.76.09-26.13-3.62-31-16.62-4.2-11.12.93-26.54,9.87-33.25C48.52,50,62.61,59.68,68.19,51Z" transform="translate(-24.82 -22.26)"/></svg>