<svg id="Layer_1" data-name="Layer 1" xmlns="http://www.w3.org/2000/svg" viewBox="0 0 48 48"><defs><style>.cls-1{fill:#57595b;}.cls-2{fill:#fff;}</style></defs><path class="cls-1" d="M50.76,26.12a24,24,0,1,1-24-24A24,24,0,0,1,50.76,26.12Z" transform="translate(-2.75 -2.12)"/><path class="cls-2" d="M40.93,14.56A12.56,12.56,0,0,1,37,16a6.18,6.18,0,0,0-4.49-1.92,6.12,6.12,0,0,0-6.16,6.06,6.21,6.21,0,0,0,.16,1.38,17.55,17.55,0,0,1-12.69-6.33,6,6,0,0,0,1.91,8.09A6.12,6.12,0,0,1,13,22.56v.08a6.09,6.09,0,0,0,4.94,5.94,6.28,6.28,0,0,1-2.78.1,6.14,6.14,0,0,0,5.75,4.21,12.46,12.46,0,0,1-7.65,2.6,12,12,0,0,1-1.47-.09,17.66,17.66,0,0,0,9.44,2.72A17.25,17.25,0,0,0,38.7,20.88c0-.26,0-.52,0-.78A12.38,12.38,0,0,0,41.76,17a12.36,12.36,0,0,1-3.54,1A6.11,6.11,0,0,0,40.93,14.56Z" transform="translate(-2.75 -2.12)"/></svg>