<svg id="Layer_1" data-name="Layer 1" xmlns="http://www.w3.org/2000/svg" viewBox="0 0 174.13 79.45"><defs><style>.cls-1{fill:none;stroke:#000;stroke-miterlimit:10;}</style></defs><path class="cls-1" d="M24.91,95.76c5.84-7.28,19.69-22.16,43-28.06,7.42-1.87,15.55-3.93,25-1.7,16.58,3.91,16.16,16,32,21.26,18,5.93,37.76-3.46,43-6a61.67,61.67,0,0,0,25-21.26" transform="translate(-24.52 -38.87)"/><path class="cls-1" d="M25.24,74.86c5.83-7.28,19.68-22.16,43-28.06,7.41-1.87,15.55-3.93,25-1.7,16.57,3.91,16.15,16,32,21.26,18,5.93,37.76-3.46,43-6a61.81,61.81,0,0,0,25-21.26" transform="translate(-24.52 -38.87)"/><path class="cls-1" d="M30.23,118c5.84-7.28,19.69-22.16,43-28,7.42-1.88,15.55-3.93,25-1.7,16.58,3.91,16.16,16,32,21.25,18,5.94,37.76-3.45,43-6a61.67,61.67,0,0,0,25-21.26" transform="translate(-24.52 -38.87)"/></svg>