<svg id="Layer_1" data-name="Layer 1" xmlns="http://www.w3.org/2000/svg" viewBox="0 0 108 170"><defs><style>.cls-1,.cls-3{fill:none;}.cls-1,.cls-2{stroke:#000;stroke-miterlimit:10;}.cls-2{fill:#e6e6e6;}</style></defs><rect class="cls-1" x="0.5" y="0.5" width="107" height="102"/><rect class="cls-2" x="5.41" y="30.29" width="96.59" height="43.5" rx="19.06"/><line class="cls-3" x1="41.02" y1="63.78" x2="41.02" y2="156.41"/><line class="cls-1" x1="24.09" y1="47.71" x2="24.09" y2="55.93"/><line class="cls-1" x1="34.73" y1="67.51" x2="34.73" y2="37.63"/><line class="cls-1" x1="28.93" y1="61.16" x2="28.93" y2="43.61"/><line class="cls-3" x1="32.77" y1="66.28" x2="32.77" y2="170"/><line class="cls-1" x1="50.54" y1="48.3" x2="50.54" y2="57.5"/><line class="cls-1" x1="39.37" y1="70.47" x2="39.37" y2="37.01"/><line class="cls-1" x1="45.46" y1="63.36" x2="45.46" y2="43.7"/><line class="cls-1" x1="55.03" y1="42.28" x2="55.03" y2="60.88"/><line class="cls-1" x1="59.72" y1="38.7" x2="59.72" y2="63.75"/><line class="cls-1" x1="64.41" y1="32.98" x2="64.41" y2="70.9"/><line class="cls-1" x1="68.16" y1="38.7" x2="68.16" y2="63.75"/><line class="cls-1" x1="71.91" y1="43.71" x2="71.91" y2="58.74"/><line class="cls-1" x1="76.6" y1="39.42" x2="76.6" y2="63.75"/><line class="cls-1" x1="81.29" y1="43.71" x2="81.29" y2="58.74"/><line class="cls-1" x1="85.04" y1="47.29" x2="85.04" y2="55.16"/></svg>