<svg id="Layer_1" data-name="Layer 1" xmlns="http://www.w3.org/2000/svg" viewBox="0 0 176.08 87.48"><defs><style>.cls-1{fill:none;stroke:#000;stroke-miterlimit:10;}</style></defs><path class="cls-1" d="M32.05,135.91c19.65,3.38,95.1,15.34,142-2.81,11.06-4.28,21-10.41,27-21.07,7.18-12.57,10.47-33.92-1.35-46.35-6.22-6.55-18.59-12.69-29.75-7-11.44,5.8-13.37,19.8-13.52,21.07" transform="translate(-31.96 -55.92)"/><path class="cls-1" d="M33.55,115.67c8.4,1.33,40.64,6,60.68-1.1,4.72-1.69,9-4.09,11.55-8.29,3.07-4.93,4.48-13.33-.57-18.22-2.66-2.57-7.95-5-12.72-2.76s-5.71,7.78-5.78,8.28" transform="translate(-31.96 -55.92)"/><path class="cls-1" d="M33.55,125.46c12.65,2.13,61.23,9.66,91.42-1.77,7.12-2.69,13.5-6.55,17.42-13.26,4.61-7.91,6.73-21.35-.88-29.18-4-4.12-12-8-19.15-4.42-7.37,3.65-8.61,12.46-8.71,13.26" transform="translate(-31.96 -55.92)"/></svg>